<?xml version="1.0" encoding="UTF-8" standalone="no"?>
<svg
   width="166"
   height="34"
   viewBox="0 0 166 34"
   version="1.1"
   id="svg3"
   sodipodi:docname="logo-nerve-black.svg"
   inkscape:version="1.4 (86a8ad7, 2024-10-11)"
   xmlns:inkscape="http://www.inkscape.org/namespaces/inkscape"
   xmlns:sodipodi="http://sodipodi.sourceforge.net/DTD/sodipodi-0.dtd"
   xmlns="http://www.w3.org/2000/svg"
   xmlns:svg="http://www.w3.org/2000/svg">
  <defs
     id="defs3" />
  <sodipodi:namedview
     id="namedview3"
     pagecolor="#ffffff"
     bordercolor="#000000"
     borderopacity="0.25"
     inkscape:showpageshadow="2"
     inkscape:pageopacity="0.0"
     inkscape:pagecheckerboard="0"
     inkscape:deskcolor="#d1d1d1"
     inkscape:zoom="5.4879518"
     inkscape:cx="107.59934"
     inkscape:cy="14.304061"
     inkscape:window-width="1920"
     inkscape:window-height="1137"
     inkscape:window-x="1912"
     inkscape:window-y="-8"
     inkscape:window-maximized="1"
     inkscape:current-layer="svg3" />
  <g
     fill="none"
     fill-rule="nonzero"
     id="g3">
    <path
       fill="#FFF"
       d="M.319 13.554a13.108 13.108 0 0 1 1.18-5.663 12.397 12.397 0 0 1 3.25-4.24A14.526 14.526 0 0 1 9.66.993c2.01-.629 4.109-.938 6.217-.917 2.118-.02 4.226.29 6.248.917a14.472 14.472 0 0 1 4.94 2.658 12.032 12.032 0 0 1 3.22 4.24 13.434 13.434 0 0 1 1.148 5.663v19.17h-7.268V15.386c0-2.867-.701-5.05-2.104-6.55s-3.464-2.248-6.184-2.246c-2.763 0-4.835.75-6.217 2.247-1.381 1.497-2.072 3.68-2.072 6.549v17.338H.32v-19.17zM73.894 12.288c0-3.879 1.201-6.884 3.603-9.017C79.898 1.14 83.224.074 87.475.076c2.678 0 4.856.369 6.535 1.107 1.679.739 2.518 1.867 2.518 3.386a4.03 4.03 0 0 1-.605 2.088c-.245.48-.58.91-.989 1.265a18.009 18.009 0 0 0-2.677-.949 13.665 13.665 0 0 0-3.635-.443c-4.973 0-7.46 2.616-7.46 7.846v18.35h-7.268V12.289zM112.72 32.724c-2-3.67-3.828-7.119-5.484-10.346a288.82 288.82 0 0 1-4.271-8.637c-1.19-2.532-2.104-4.64-2.742-6.328-.638-1.688-.956-2.784-.956-3.29a3.097 3.097 0 0 1 .892-2.247c.596-.61 1.508-.917 2.742-.917a8.005 8.005 0 0 1 2.2.253c.346.077.68.205.988.38.85 2.277 1.764 4.587 2.741 6.928a214.055 214.055 0 0 0 2.901 6.644 285.365 285.365 0 0 0 2.678 5.695c.829 1.709 1.52 3.111 2.072 4.208a97.901 97.901 0 0 0 2.614-5.378c.937-2.067 1.84-4.113 2.71-6.138.871-2.025 1.657-3.87 2.359-5.537.701-1.666 1.2-2.88 1.498-3.638a7.637 7.637 0 0 1 1.53-2.5c.597-.61 1.533-.915 2.806-.917a6.125 6.125 0 0 1 2.9.6c.431.215.847.458 1.244.728-.255.886-.69 2.1-1.307 3.639-.617 1.54-1.36 3.259-2.232 5.157a332.37 332.37 0 0 1-2.805 5.948 551.7 551.7 0 0 1-2.965 6.043 430.015 430.015 0 0 1-2.773 5.473 238.781 238.781 0 0 1-2.2 4.177h-7.14zM163.661 30.386c-.34.212-.87.506-1.594.885-.868.44-1.775.8-2.71 1.076-1.233.374-2.49.67-3.76.886-1.549.263-3.117.39-4.687.38-2.266.019-4.52-.345-6.663-1.076a15.476 15.476 0 0 1-5.42-3.196 15.016 15.016 0 0 1-3.665-5.188 17.49 17.49 0 0 1-1.339-7.056 17.842 17.842 0 0 1 1.307-6.928 15.863 15.863 0 0 1 3.634-5.379 16.423 16.423 0 0 1 5.483-3.48 18.836 18.836 0 0 1 6.918-1.234c1.989-.033 3.97.255 5.866.854a13.637 13.637 0 0 1 4.303 2.278 9.29 9.29 0 0 1 3.539 7.372 9.521 9.521 0 0 1-.83 4.018c-.552 1.202-1.53 2.236-2.932 3.1-1.403.865-3.294 1.54-5.674 2.025-2.38.488-5.398.73-9.054.728-.85 0-1.647-.01-2.39-.032-.745-.02-1.542-.052-2.392-.094a7.862 7.862 0 0 0 3.156 5.22c1.764 1.329 4.283 1.993 7.556 1.993a17.347 17.347 0 0 0 5.579-.886c.65-.217 1.29-.47 1.912-.76a83.72 83.72 0 0 0 1.18-.569l2.677 5.063zm-22.378-14.997a61.96 61.96 0 0 0 2.805.063h2.678c1.901.038 3.802-.11 5.674-.443 1.18-.202 2.32-.586 3.38-1.139a3.557 3.557 0 0 0 1.593-1.582c.253-.579.383-1.203.383-1.835 0-1.6-.649-2.803-1.945-3.606-1.296-.804-2.9-1.205-4.814-1.203a9.825 9.825 0 0 0-4.144.823 9.047 9.047 0 0 0-2.996 2.183 9.995 9.995 0 0 0-1.881 3.132 11.243 11.243 0 0 0-.733 3.607z"
       id="path1"
       style="fill:#1a1a1a" />
    <rect
       width="31.187"
       height="7.176"
       x="37.062"
       y="12.785"
       fill="#008ACB"
       rx="3.588"
       id="rect1" />
    <rect
       width="31.187"
       height="7.176"
       x="37.062"
       fill="#008ACB"
       rx="3.588"
       id="rect2" />
    <rect
       width="31.187"
       height="7.176"
       x="37.062"
       y="25.57"
       fill="#008ACB"
       rx="3.588"
       id="rect3" />
  </g>
</svg>
